<svg width="65" height="64" viewBox="0 0 65 64" fill="none" xmlns="http://www.w3.org/2000/svg">
<path d="M52.8803 20.6105C55.0105 20.5482 57.1148 21.0954 58.9498 22.1888C60.7849 23.2823 62.2758 24.8773 63.2502 26.7896C64.2247 28.7019 64.6429 30.8534 64.4566 32.9954C64.2702 35.1374 63.4869 37.1824 62.1972 38.8942C60.9074 40.606 59.1639 41.9146 57.1682 42.6687C55.1724 43.4229 53.0058 43.5919 50.9189 43.1561C48.832 42.7203 46.9099 41.6976 45.3747 40.2061C43.8396 38.7146 42.7541 36.8153 42.2438 34.7276H32.9736V38.7119C32.9617 39.1171 32.7939 39.5017 32.5056 39.7841C32.2173 40.0665 31.8313 40.2246 31.4295 40.2246C31.0277 40.2246 30.6417 40.0665 30.3535 39.7841C30.0652 39.5017 29.8973 39.1171 29.8855 38.7119V34.7276H24.0216V37.5452C24.0173 38.2658 23.7307 38.9553 23.2242 39.4633C22.7177 39.9713 22.0326 40.2564 21.3184 40.2564C20.6043 40.2564 19.9191 39.9713 19.4126 39.4633C18.9062 38.9553 18.6195 38.2658 18.6152 37.5452V29.2729H42.2438C42.8345 26.8544 44.1944 24.698 46.1154 23.1336C48.0364 21.5691 50.4126 20.6828 52.8803 20.6105ZM53.3548 26.0367C52.5677 26.017 51.7847 26.1569 51.0522 26.448C50.3196 26.7391 49.6524 27.1755 49.09 27.7314C48.5276 28.2874 48.0815 28.9514 47.778 29.6844C47.4746 30.4174 47.32 31.2044 47.3233 31.9987C47.311 32.7864 47.4541 33.5687 47.7443 34.3001C48.0345 35.0314 48.4661 35.6972 49.0138 36.2586C49.5615 36.82 50.2144 37.2658 50.9346 37.5701C51.6547 37.8745 52.4277 38.0312 53.2084 38.0312C53.9892 38.0312 54.7622 37.8745 55.4823 37.5701C56.2025 37.2658 56.8554 36.82 57.4031 36.2586C57.9508 35.6972 58.3823 35.0314 58.6726 34.3001C58.9628 33.5687 59.1059 32.7864 59.0935 31.9987C59.1001 30.445 58.503 28.9507 57.4301 27.8361C56.3573 26.7215 54.8942 26.0755 53.3548 26.0367Z" fill="#4B5563"/>
<path d="M49.6682 12.1358C45.875 8.74333 41.1913 6.52864 36.1803 5.75801C31.1692 4.98739 26.0443 5.69375 21.4216 7.79204C16.799 9.89032 12.8755 13.2911 10.123 17.5857C7.37056 21.8803 5.90629 26.8858 5.90629 32.0001C5.90629 37.1144 7.37056 42.1197 10.123 46.4143C12.8755 50.7089 16.799 54.1098 21.4216 56.2081C26.0443 58.3064 31.1692 59.0128 36.1803 58.2422C41.1913 57.4715 45.875 55.2567 49.6682 51.8642C50.2047 51.3843 50.9081 51.1392 51.6238 51.1827C52.3395 51.2261 53.0088 51.5544 53.4844 52.0957C53.96 52.637 54.203 53.3469 54.16 54.069C54.1169 54.7911 53.7913 55.4662 53.2549 55.9461C48.6822 60.0358 43.036 62.7056 36.9953 63.6346C30.9545 64.5636 24.7763 63.7121 19.2037 61.1827C13.6312 58.6532 8.90144 54.5534 5.58335 49.3763C2.26525 44.1992 0.500076 38.1653 0.500076 32.0001C0.500076 25.8348 2.26525 19.8008 5.58335 14.6237C8.90144 9.44658 13.6312 5.34681 19.2037 2.81734C24.7763 0.287874 30.9545 -0.563613 36.9953 0.365375C43.036 1.29436 48.6822 3.96425 53.2549 8.05391C53.7911 8.53384 54.1166 9.20904 54.1595 9.93102C54.2025 10.653 53.9594 11.3625 53.4839 11.9038C53.0084 12.445 52.3392 12.7735 51.6237 12.817C50.9081 12.8605 50.2047 12.6155 49.6682 12.1358Z" fill="#FCD34D"/>
</svg>
