<svg width="182" height="42" viewBox="0 0 182 42" fill="none" xmlns="http://www.w3.org/2000/svg">
<path d="M32.7377 13.8814C34.0691 13.8425 35.3842 14.1845 36.5311 14.8679C37.678 15.5513 38.6099 16.5482 39.2189 17.7433C39.8279 18.9385 40.0893 20.2832 39.9728 21.622C39.8564 22.9607 39.3668 24.2389 38.5607 25.3087C37.7546 26.3786 36.6649 27.1965 35.4176 27.6678C34.1702 28.1392 32.8161 28.2448 31.5118 27.9724C30.2075 27.7 29.0062 27.0608 28.0467 26.1287C27.0873 25.1965 26.4088 24.0094 26.0899 22.7046H20.296V25.1948C20.2886 25.448 20.1836 25.6884 20.0035 25.8649C19.8233 26.0414 19.5821 26.1402 19.3309 26.1402C19.0798 26.1402 18.8386 26.0414 18.6584 25.8649C18.4782 25.6884 18.3733 25.448 18.3659 25.1948V22.7046H14.701V24.4656C14.6983 24.916 14.5192 25.3469 14.2026 25.6644C13.886 25.9819 13.4578 26.1601 13.0115 26.1601C12.5652 26.1601 12.1369 25.9819 11.8204 25.6644C11.5038 25.3469 11.3247 24.916 11.322 24.4656V19.2954H26.0899C26.4591 17.7839 27.309 16.4361 28.5096 15.4583C29.7103 14.4805 31.1954 13.9266 32.7377 13.8814V13.8814ZM33.0342 17.2728C32.5423 17.2605 32.0529 17.3479 31.5951 17.5298C31.1372 17.7118 30.7202 17.9845 30.3687 18.332C30.0173 18.6795 29.7384 19.0945 29.5488 19.5526C29.3591 20.0107 29.2625 20.5026 29.2646 20.9991C29.2569 21.4913 29.3463 21.9803 29.5277 22.4374C29.7091 22.8944 29.9788 23.3106 30.3211 23.6615C30.6634 24.0123 31.0715 24.291 31.5216 24.4812C31.9717 24.6714 32.4548 24.7694 32.9428 24.7694C33.4307 24.7694 33.9138 24.6714 34.3639 24.4812C34.814 24.291 35.2221 24.0123 35.5644 23.6615C35.9068 23.3106 36.1765 22.8944 36.3578 22.4374C36.5392 21.9803 36.6287 21.4913 36.621 20.9991C36.6251 20.028 36.2519 19.094 35.5813 18.3974C34.9108 17.7008 33.9964 17.297 33.0342 17.2728V17.2728Z" fill="white"/>
<path d="M30.7301 8.5849C28.3594 6.46458 25.4321 5.0804 22.3002 4.59876C19.1683 4.11712 15.9652 4.5586 13.076 5.87002C10.1868 7.18145 7.73468 9.30694 6.01439 11.9911C4.29409 14.6752 3.37892 17.8036 3.37892 21.0001C3.37892 24.1965 4.29409 27.3248 6.01439 30.0089C7.73468 32.6931 10.1868 34.8187 13.076 36.1301C15.9652 37.4415 19.1683 37.883 22.3002 37.4013C25.4321 36.9197 28.3594 35.5354 30.7301 33.4151C31.0654 33.1152 31.5051 32.962 31.9524 32.9892C32.3997 33.0163 32.818 33.2215 33.1152 33.5598C33.4125 33.8981 33.5644 34.3418 33.5375 34.7931C33.5106 35.2444 33.3071 35.6664 32.9718 35.9663C30.1139 38.5223 26.585 40.191 22.8095 40.7716C19.034 41.3523 15.1727 40.8201 11.6898 39.2392C8.20697 37.6582 5.25089 35.0959 3.17708 31.8602C1.10328 28.6245 3.83249e-05 24.8533 3.83249e-05 21.0001C3.83249e-05 17.1468 1.10328 13.3755 3.17708 10.1398C5.25089 6.90411 8.20697 4.34176 11.6898 2.76084C15.1727 1.17992 19.034 0.647742 22.8095 1.22836C26.585 1.80898 30.1139 3.47766 32.9718 6.03369C33.307 6.33365 33.5103 6.75565 33.5372 7.20688C33.564 7.65812 33.4121 8.10159 33.1149 8.43985C32.8177 8.77811 32.3995 8.98343 31.9523 9.01063C31.5051 9.03783 31.0654 8.88469 30.7301 8.5849V8.5849Z" fill="#FCD34D"/>
<path d="M57.321 30H68.8011V26.5739H61.5398V12.5455H57.321V30ZM71.4651 30H75.6327V16.9091H71.4651V30ZM73.5532 15.3835C74.7378 15.3835 75.6924 14.4886 75.6924 13.3892C75.6924 12.2898 74.7378 11.4034 73.5532 11.4034C72.377 11.4034 71.4139 12.2898 71.4139 13.3892C71.4139 14.4886 72.377 15.3835 73.5532 15.3835ZM90.1944 20.9062C89.9728 18.3153 87.8506 16.7386 84.3052 16.7386C80.7597 16.7386 78.5012 18.2812 78.5182 20.9062C78.5012 22.9176 79.7881 24.2131 82.4046 24.6989L84.6887 25.1335C85.7711 25.3466 86.2654 25.6875 86.2824 26.267C86.2654 26.9233 85.5324 27.358 84.4671 27.358C83.2824 27.358 82.4813 26.8466 82.3023 25.892L78.1859 25.9943C78.4841 28.5852 80.7086 30.2472 84.4501 30.2472C87.9529 30.2472 90.5012 28.5 90.5182 25.8068C90.5012 23.8977 89.2398 22.7642 86.6319 22.2614L84.1091 21.7841C83.0012 21.5625 82.6432 21.1705 82.6518 20.6676C82.6432 20.0028 83.4188 19.5938 84.3819 19.5938C85.4813 19.5938 86.2484 20.1818 86.3677 21.0085L90.1944 20.9062ZM93.0501 30H97.2177V26.071L98.0614 25.0483L101.181 30H105.996L101.164 22.6108L105.809 16.9091H101.087L97.4052 21.5966H97.2177V12.5455H93.0501V30ZM113.416 30H117.635V24.0256H119.8L122.987 30H127.59L123.967 23.3523C125.885 22.483 126.993 20.7699 126.993 18.358C126.993 14.7699 124.547 12.5455 120.627 12.5455H113.416V30ZM117.635 20.7017V15.946H119.715C121.607 15.946 122.621 16.7386 122.621 18.358C122.621 19.9773 121.607 20.7017 119.715 20.7017H117.635ZM129.787 30H137.619C141.48 30 143.696 27.9375 143.696 25.1165C143.696 22.5938 141.864 21.0085 139.75 20.9148V20.7443C141.668 20.3438 143.014 18.9545 143.014 16.9602C143.014 14.3267 140.986 12.5455 137.065 12.5455H129.787V30ZM134.006 26.5994V22.4403H136.69C138.301 22.4403 139.29 23.2926 139.29 24.6307C139.29 25.8665 138.438 26.5994 136.614 26.5994H134.006ZM134.006 19.7216V15.8949H136.409C137.815 15.8949 138.71 16.6193 138.71 17.7784C138.71 19.0057 137.722 19.7216 136.341 19.7216H134.006ZM149.98 30L151.131 26.3352H157.156L158.307 30H162.841L156.952 12.5455H151.335L145.446 30H149.98ZM152.136 23.1307L154.071 16.9432H154.207L156.15 23.1307H152.136ZM180.224 18.8693C179.797 14.6932 176.687 12.3068 172.468 12.3068C167.814 12.3068 164.192 15.5028 164.192 21.2727C164.192 27.017 167.729 30.2386 172.468 30.2386C177.258 30.2386 179.908 26.983 180.224 23.8892L175.962 23.8636C175.664 25.5426 174.402 26.5398 172.553 26.5398C170.064 26.5398 168.496 24.7415 168.496 21.2727C168.496 17.9403 170.03 16.0057 172.579 16.0057C174.496 16.0057 175.749 17.1222 175.962 18.8693H180.224Z" fill="white"/>
</svg>
