<svg width="181" height="34" viewBox="0 0 181 34" fill="none" xmlns="http://www.w3.org/2000/svg">
<path d="M26.1901 11.3052C27.2552 11.274 28.3074 11.5476 29.2249 12.0944C30.1424 12.6411 30.8879 13.4386 31.3751 14.3947C31.8623 15.3509 32.0714 16.4267 31.9782 17.4977C31.8851 18.5687 31.4934 19.5912 30.8486 20.447C30.2037 21.3029 29.3319 21.9572 28.334 22.3343C27.3362 22.7114 26.2529 22.7959 25.2094 22.578C24.166 22.3601 23.2049 21.8487 22.4373 21.103C21.6698 20.3573 21.127 19.4076 20.8719 18.3638H16.2367V20.3559C16.2308 20.5585 16.1469 20.7508 16.0028 20.892C15.8586 21.0332 15.6656 21.1122 15.4647 21.1122C15.2638 21.1122 15.0708 21.0332 14.9267 20.892C14.7826 20.7508 14.6986 20.5585 14.6927 20.3559V18.3638H11.7608V19.7726C11.7586 20.1328 11.6153 20.4776 11.3621 20.7316C11.1088 20.9856 10.7662 21.1281 10.4092 21.1281C10.0521 21.1281 9.70953 20.9856 9.45629 20.7316C9.20305 20.4776 9.05971 20.1328 9.05757 19.7726V15.6364H20.8719C21.1672 14.4272 21.8472 13.3489 22.8077 12.5667C23.7682 11.7845 24.9563 11.3413 26.1901 11.3052ZM26.4274 14.0183C26.0338 14.0084 25.6423 14.0784 25.276 14.2239C24.9098 14.3695 24.5762 14.5877 24.295 14.8657C24.0138 15.1436 23.7907 15.4756 23.639 15.8421C23.4873 16.2086 23.4099 16.6021 23.4116 16.9993C23.4055 17.3931 23.477 17.7843 23.6221 18.15C23.7672 18.5156 23.983 18.8485 24.2569 19.1292C24.5307 19.4099 24.8572 19.6328 25.2172 19.785C25.5773 19.9372 25.9638 20.0156 26.3542 20.0156C26.7446 20.0156 27.1311 19.9372 27.4911 19.785C27.8512 19.6328 28.1777 19.4099 28.4515 19.1292C28.7254 18.8485 28.9411 18.5156 29.0862 18.15C29.2314 17.7843 29.3029 17.3931 29.2967 16.9993C29.3 16.2225 29.0015 15.4753 28.465 14.918C27.9286 14.3607 27.1971 14.0377 26.4274 14.0183Z" fill="white"/>
<path d="M24.5841 7.06792C22.6875 5.37167 20.3456 4.26432 17.8401 3.87901C15.3346 3.4937 12.7721 3.84688 10.4608 4.89602C8.14946 5.94516 6.18772 7.64555 4.81149 9.79285C3.43525 11.9401 2.70311 14.4429 2.70311 17C2.70311 19.5572 3.43525 22.0599 4.81149 24.2072C6.18772 26.3545 8.14946 28.0549 10.4608 29.1041C12.7721 30.1532 15.3346 30.5064 17.8401 30.1211C20.3456 29.7358 22.6875 28.6283 24.5841 26.9321C24.8523 26.6921 25.204 26.5696 25.5619 26.5913C25.9197 26.613 26.2543 26.7772 26.4922 27.0479C26.73 27.3185 26.8515 27.6735 26.83 28.0345C26.8084 28.3955 26.6456 28.7331 26.3774 28.973C24.0911 31.0179 21.268 32.3528 18.2476 32.8173C15.2272 33.2818 12.1381 32.8561 9.35184 31.5913C6.56555 30.3266 4.20069 28.2767 2.54164 25.6882C0.882597 23.0996 7.62939e-06 20.0827 7.62939e-06 17C7.62939e-06 13.9174 0.882597 10.9004 2.54164 8.31185C4.20069 5.72329 6.56555 3.67341 9.35184 2.40867C12.1381 1.14394 15.2272 0.718194 18.2476 1.18269C21.268 1.64718 24.0911 2.98212 26.3774 5.02695C26.6455 5.26692 26.8082 5.60452 26.8297 5.96551C26.8512 6.32649 26.7297 6.68127 26.4919 6.95188C26.2541 7.22249 25.9196 7.38674 25.5618 7.4085C25.204 7.43026 24.8523 7.30775 24.5841 7.06792Z" fill="#4F46E5"/>
<path d="M49.321 26H60.8011V22.5739H53.5398V8.54545H49.321V26ZM64.4251 26H68.5927V12.9091H64.4251V26ZM66.5132 11.3835C67.6978 11.3835 68.6524 10.4886 68.6524 9.3892C68.6524 8.28977 67.6978 7.40341 66.5132 7.40341C65.337 7.40341 64.3739 8.28977 64.3739 9.3892C64.3739 10.4886 65.337 11.3835 66.5132 11.3835ZM84.1144 16.9062C83.8928 14.3153 81.7706 12.7386 78.2252 12.7386C74.6797 12.7386 72.4212 14.2812 72.4382 16.9062C72.4212 18.9176 73.7081 20.2131 76.3246 20.6989L78.6087 21.1335C79.6911 21.3466 80.1854 21.6875 80.2024 22.267C80.1854 22.9233 79.4524 23.358 78.3871 23.358C77.2024 23.358 76.4013 22.8466 76.2223 21.892L72.1059 21.9943C72.4041 24.5852 74.6286 26.2472 78.3701 26.2472C81.8729 26.2472 84.4212 24.5 84.4382 21.8068C84.4212 19.8977 83.1598 18.7642 80.5519 18.2614L78.0291 17.7841C76.9212 17.5625 76.5632 17.1705 76.5718 16.6676C76.5632 16.0028 77.3388 15.5938 78.3019 15.5938C79.4013 15.5938 80.1684 16.1818 80.2877 17.0085L84.1144 16.9062ZM87.9301 26H92.0977V22.071L92.9414 21.0483L96.0608 26H100.876L96.0437 18.6108L100.689 12.9091H95.967L92.2852 17.5966H92.0977V8.54545H87.9301V26ZM110.216 26H114.435V20.0256H116.6L119.787 26H124.39L120.767 19.3523C122.685 18.483 123.793 16.7699 123.793 14.358C123.793 10.7699 121.347 8.54545 117.427 8.54545H110.216V26ZM114.435 16.7017V11.946H116.515C118.407 11.946 119.421 12.7386 119.421 14.358C119.421 15.9773 118.407 16.7017 116.515 16.7017H114.435ZM127.547 26H135.379C139.24 26 141.456 23.9375 141.456 21.1165C141.456 18.5938 139.624 17.0085 137.51 16.9148V16.7443C139.428 16.3438 140.774 14.9545 140.774 12.9602C140.774 10.3267 138.746 8.54545 134.825 8.54545H127.547V26ZM131.766 22.5994V18.4403H134.45C136.061 18.4403 137.05 19.2926 137.05 20.6307C137.05 21.8665 136.198 22.5994 134.374 22.5994H131.766ZM131.766 15.7216V11.8949H134.169C135.575 11.8949 136.47 12.6193 136.47 13.7784C136.47 15.0057 135.482 15.7216 134.101 15.7216H131.766ZM148.7 26L149.851 22.3352H155.876L157.027 26H161.561L155.672 8.54545H150.055L144.166 26H148.7ZM150.856 19.1307L152.791 12.9432H152.927L154.87 19.1307H150.856ZM179.904 14.8693C179.477 10.6932 176.367 8.30682 172.148 8.30682C167.494 8.30682 163.872 11.5028 163.872 17.2727C163.872 23.017 167.409 26.2386 172.148 26.2386C176.938 26.2386 179.588 22.983 179.904 19.8892L175.642 19.8636C175.344 21.5426 174.083 22.5398 172.233 22.5398C169.744 22.5398 168.176 20.7415 168.176 17.2727C168.176 13.9403 169.71 12.0057 172.259 12.0057C174.176 12.0057 175.429 13.1222 175.642 14.8693H179.904Z" fill="white"/>
</svg>
